<svg xmlns="http://www.w3.org/2000/svg" width="20" height="20" viewBox="0 0 20 20" class="feedly-icon-transparent"><g fill="currentColor" fill-rule="nonzero"><path d="M8.713 2.465 1.16 10.016a1.789 1.789 0 0 0 0 2.53l4.959 4.959c.335.336.791.524 1.266.524l5.19-.004c.474 0 .928-.19 1.263-.524l4.955-4.955a1.789 1.789 0 0 0 0-2.53l-7.552-7.551a1.789 1.789 0 0 0-2.53 0Zm-6.845 8.259L9.42 3.172a.789.789 0 0 1 1.115 0l7.552 7.552a.789.789 0 0 1 0 1.115l-4.955 4.955a.789.789 0 0 1-.557.23l-5.19.005a.789.789 0 0 1-.558-.231l-4.959-4.959a.789.789 0 0 1 0-1.115Z"></path><path d="M9.57 6.647a.5.5 0 0 1 .764.637l-.057.07-3.75 3.75a.5.5 0 0 1-.765-.638l.058-.07 3.75-3.75ZM9.583 10.66a.5.5 0 0 1 .765.637l-.058.07-1.75 1.75a.5.5 0 0 1-.765-.639l.058-.069 1.75-1.75ZM10.45 13.53a.5.5 0 0 1 .765.637l-.058.07-.749.748a.5.5 0 0 1-.765-.638l.058-.07.749-.748Z"></path></g></svg>