<svg xmlns="http://www.w3.org/2000/svg" width="28" height="28" fill="none" viewBox="0 0 28 28"><path fill="var(--button-clr)" d="M16.034 3.334a2.867 2.867 0 0 0-4.043 0L1.834 13.49a2.867 2.867 0 0 0 0 4.043l7.248 7.248c.504.44 1.164.706 1.886.706h6.089c.793 0 1.512-.322 2.032-.841l7.107-7.108a2.867 2.867 0 0 0 0-4.043L16.034 3.334Zm-.283 18.551L14.736 22.9a.407.407 0 0 1-.29.12h-.868a.41.41 0 0 1-.27-.1l-1.033-1.034a.408.408 0 0 1 0-.577l1.449-1.45a.41.41 0 0 1 .577 0l1.45 1.45a.409.409 0 0 1 0 .577Zm0-6.079-4.054 4.054a.408.408 0 0 1-.29.12h-.869a.408.408 0 0 1-.269-.1l-1.034-1.035a.41.41 0 0 1 0-.577l4.489-4.488a.409.409 0 0 1 .577 0l1.45 1.45a.409.409 0 0 1 0 .576Zm0-6.08L8.657 16.82a.408.408 0 0 1-.29.12H7.5a.407.407 0 0 1-.27-.1l-1.034-1.035a.409.409 0 0 1 0-.577L13.724 7.7a.409.409 0 0 1 .577 0l1.45 1.45a.409.409 0 0 1 0 .576Z"></path></svg>