<svg width="408" height="320" viewBox="0 0 408 320" fill="none" xmlns="http://www.w3.org/2000/svg">
<path fill-rule="evenodd" clip-rule="evenodd" d="M320.613 197.129H283.931C273.966 197.129 265.878 189.068 265.878 179.136V142.576C265.878 132.644 273.966 124.583 283.931 124.583H320.613C330.578 124.583 338.665 132.644 338.665 142.576V179.136C338.665 189.068 330.506 197.129 320.613 197.129Z" fill="#121212"/>
<path fill-rule="evenodd" clip-rule="evenodd" d="M320.613 198.424H283.931C273.244 198.424 264.578 189.788 264.578 179.136V142.576C264.578 131.924 273.244 123.288 283.931 123.288H320.613C331.3 123.288 339.965 131.924 339.965 142.576V179.136C339.893 189.788 331.228 198.424 320.613 198.424ZM283.931 125.879C274.688 125.879 267.178 133.364 267.178 142.576V179.136C267.178 188.348 274.688 195.833 283.931 195.833H320.613C329.856 195.833 337.366 188.348 337.366 179.136V142.576C337.366 133.364 329.856 125.879 320.613 125.879H283.931Z" fill="#333333"/>
<path fill-rule="evenodd" clip-rule="evenodd" d="M323.935 158.913L306.099 141.136C303.933 138.977 300.467 138.977 298.3 141.136L280.465 158.913C278.298 161.072 278.298 164.526 280.465 166.685L292.451 178.632C294.04 180.216 296.278 181.151 298.589 181.151H305.738C308.049 181.151 310.215 180.216 311.876 178.632L323.863 166.685C326.101 164.526 326.101 161 323.935 158.913ZM292.812 164.526C291.801 165.534 290.285 165.534 289.274 164.526C288.263 163.519 288.263 162.007 289.274 161L300.322 149.988C301.333 148.981 302.85 148.981 303.86 149.988C304.871 150.996 304.871 152.507 303.86 153.515L292.812 164.526ZM304.005 175.61C302.994 176.617 301.478 176.617 300.467 175.61C299.456 174.602 299.456 173.091 300.467 172.083C301.478 171.076 302.994 171.076 304.005 172.083C304.944 173.091 304.944 174.674 304.005 175.61ZM304.005 164.454L298.373 170.068C297.362 171.076 295.845 171.076 294.834 170.068C293.823 169.06 293.823 167.549 294.834 166.541L300.467 160.928C301.478 159.92 302.994 159.92 304.005 160.928C305.016 161.935 305.016 163.519 304.005 164.454Z" fill="#D9D9D9"/>
<path fill-rule="evenodd" clip-rule="evenodd" d="M157.203 80.4659H126.008C125.286 80.4659 124.708 79.8902 124.708 79.1705C124.708 78.4508 125.286 77.875 126.008 77.875H157.203C157.925 77.875 158.503 78.4508 158.503 79.1705C158.503 79.8902 157.925 80.4659 157.203 80.4659Z" fill="#333333"/>
<path fill-rule="evenodd" clip-rule="evenodd" d="M159.297 244.413H128.103C127.38 244.413 126.803 243.837 126.803 243.117C126.803 242.398 127.38 241.822 128.103 241.822H159.297C160.019 241.822 160.597 242.398 160.597 243.117C160.597 243.837 159.947 244.413 159.297 244.413Z" fill="#333333"/>
<path fill-rule="evenodd" clip-rule="evenodd" d="M106.151 231.746H85.2822C84.5601 231.746 83.9824 231.17 83.9824 230.451C83.9824 229.731 84.5601 229.155 85.2822 229.155H106.151C106.873 229.155 107.451 229.731 107.451 230.451C107.451 231.17 106.873 231.746 106.151 231.746Z" fill="#333333"/>
<path fill-rule="evenodd" clip-rule="evenodd" d="M147.021 231.746H137.562C136.84 231.746 136.262 231.17 136.262 230.451C136.262 229.731 136.84 229.155 137.562 229.155H147.021C147.743 229.155 148.321 229.731 148.321 230.451C148.321 231.17 147.671 231.746 147.021 231.746Z" fill="#333333"/>
<path fill-rule="evenodd" clip-rule="evenodd" d="M56.9038 177.841H47.4443C46.7222 177.841 46.1445 177.265 46.1445 176.545C46.1445 175.826 46.7222 175.25 47.4443 175.25H56.9038C57.6259 175.25 58.2035 175.826 58.2035 176.545C58.2035 177.265 57.6259 177.841 56.9038 177.841Z" fill="#333333"/>
<path fill-rule="evenodd" clip-rule="evenodd" d="M133.157 94.7159H121.242C120.52 94.7159 119.943 94.1402 119.943 93.4205C119.943 92.7008 120.52 92.125 121.242 92.125H133.157C133.879 92.125 134.457 92.7008 134.457 93.4205C134.457 94.1402 133.879 94.7159 133.157 94.7159Z" fill="#333333"/>
<path d="M197.568 254.273C221.656 254.273 241.183 212.481 241.183 160.928C241.183 109.375 221.656 67.5833 197.568 67.5833C173.48 67.5833 153.953 109.375 153.953 160.928C153.953 212.481 173.48 254.273 197.568 254.273Z" fill="#121212"/>
<path fill-rule="evenodd" clip-rule="evenodd" d="M197.568 255.496C185.437 255.496 174.028 245.492 165.579 227.428C157.275 209.651 152.726 185.973 152.726 160.856C152.726 135.739 157.275 112.132 165.579 94.284C174.028 76.1476 185.365 66.2158 197.568 66.2158C209.699 66.2158 221.108 76.2196 229.557 94.284C237.861 112.061 242.41 135.739 242.41 160.856C242.41 185.973 237.861 209.579 229.557 227.428C221.108 245.564 209.771 255.496 197.568 255.496ZM197.568 68.8067C174.244 68.8067 155.253 110.117 155.253 160.928C155.253 211.739 174.244 253.049 197.568 253.049C220.892 253.049 239.883 211.739 239.883 160.928C239.883 110.117 220.892 68.8067 197.568 68.8067Z" fill="black"/>
<g opacity="0.1">
<path opacity="0.1" fill-rule="evenodd" clip-rule="evenodd" d="M282.053 124.871C274.11 126.095 268.044 133.004 268.044 141.208V180.648C268.044 188.852 274.182 195.761 282.053 196.985C284.219 185.901 285.447 173.739 285.447 160.928C285.447 148.117 284.219 135.954 282.053 124.871Z" fill="black"/>
</g>
<path fill-rule="evenodd" clip-rule="evenodd" d="M228.257 67.5112H197.496C221.542 67.5112 241.11 109.326 241.11 160.856C241.11 212.386 221.614 254.201 197.496 254.201H228.257C252.303 254.201 271.872 212.386 271.872 160.856C271.872 109.326 252.303 67.5112 228.257 67.5112Z" fill="#333333"/>
<path fill-rule="evenodd" clip-rule="evenodd" d="M228.257 255.496H197.496V252.977C220.82 252.977 239.811 211.667 239.811 160.856C239.811 110.045 220.82 68.7348 197.496 68.7348V66.2158H228.257C240.388 66.2158 251.797 76.2196 260.246 94.284C268.55 112.061 273.099 135.739 273.099 160.856C273.099 185.973 268.55 209.579 260.246 227.428C251.725 245.564 240.388 255.496 228.257 255.496ZM207.894 252.977H228.185C251.509 252.977 270.5 211.667 270.5 160.856C270.5 110.045 251.509 68.7348 228.185 68.7348H207.894C216.054 72.7651 223.491 81.4734 229.412 94.284C237.717 112.061 242.266 135.739 242.266 160.856C242.266 185.973 237.717 209.579 229.412 227.428C223.491 240.239 216.054 248.947 207.894 252.977Z" fill="black"/>
<path d="M196.268 241.102C213.776 241.102 227.968 205.207 227.968 160.928C227.968 116.649 213.776 80.7537 196.268 80.7537C178.761 80.7537 164.568 116.649 164.568 160.928C164.568 205.207 178.761 241.102 196.268 241.102Z" fill="#121212"/>
<path fill-rule="evenodd" clip-rule="evenodd" d="M196.268 242.398C187.242 242.398 178.866 233.761 172.656 218.072C166.59 202.814 163.269 182.447 163.269 160.928C163.269 139.409 166.59 119.042 172.656 103.784C178.866 88.0946 187.242 79.4583 196.268 79.4583C205.295 79.4583 213.671 88.0946 219.881 103.784C225.946 119.042 229.268 139.409 229.268 160.928C229.268 182.519 225.946 202.814 219.881 218.072C213.671 233.761 205.295 242.398 196.268 242.398ZM196.268 81.9772C188.47 81.9772 180.743 90.2537 175.039 104.648C169.118 119.689 165.868 139.625 165.868 160.928C165.868 182.231 169.118 202.167 175.039 217.208C180.743 231.602 188.47 239.879 196.268 239.879C204.067 239.879 211.793 231.602 217.498 217.208C223.419 202.167 226.669 182.231 226.669 160.928C226.669 139.625 223.419 119.689 217.498 104.648C211.793 90.2537 204.067 81.9772 196.268 81.9772Z" fill="black"/>
<path fill-rule="evenodd" clip-rule="evenodd" d="M182.26 160.928C182.26 127.894 192.514 99.3218 207.389 85.7195C203.923 82.4809 200.24 80.6816 196.341 80.6816C178.866 80.6816 164.641 116.595 164.641 160.856C164.641 205.117 178.866 241.03 196.341 241.03C200.24 241.03 203.923 239.231 207.389 235.992C192.441 222.534 182.26 193.962 182.26 160.928Z" fill="black"/>
<path fill-rule="evenodd" clip-rule="evenodd" d="M196.268 242.398C187.242 242.398 178.866 233.761 172.656 218.072C166.59 202.814 163.269 182.447 163.269 160.928C163.269 139.337 166.59 119.042 172.656 103.784C178.866 88.0946 187.242 79.4583 196.268 79.4583C200.384 79.4583 204.428 81.2575 208.183 84.856L209.194 85.7916L208.183 86.7272C193.163 100.401 183.487 129.549 183.487 161C183.487 192.451 193.163 221.454 208.183 235.129L209.194 236.064L208.183 237C204.428 240.526 200.456 242.398 196.268 242.398ZM196.268 81.9772C188.47 81.9772 180.743 90.2537 175.039 104.648C169.118 119.689 165.868 139.625 165.868 160.928C165.868 182.231 169.118 202.167 175.039 217.208C180.743 231.602 188.47 239.879 196.268 239.879C199.373 239.879 202.478 238.583 205.439 236.064C190.275 221.382 180.96 192.739 180.96 160.928C180.96 129.117 190.347 100.473 205.439 85.7916C202.478 83.2007 199.446 81.9772 196.268 81.9772Z" fill="black"/>
<path fill-rule="evenodd" clip-rule="evenodd" d="M240.244 84.1363H232.012C231.29 84.1363 230.712 83.5606 230.712 82.8409C230.712 82.1212 231.29 81.5454 232.012 81.5454H240.244C240.966 81.5454 241.544 82.1212 241.544 82.8409C241.544 83.5606 240.966 84.1363 240.244 84.1363Z" fill="#DFF5E3"/>
<path fill-rule="evenodd" clip-rule="evenodd" d="M249.92 101.481H241.688C240.966 101.481 240.388 100.905 240.388 100.186C240.388 99.4659 240.966 98.8901 241.688 98.8901H249.92C250.642 98.8901 251.22 99.4659 251.22 100.186C251.22 100.905 250.642 101.481 249.92 101.481Z" fill="#D2F0D9"/>
<path fill-rule="evenodd" clip-rule="evenodd" d="M256.274 118.826H248.042C247.32 118.826 246.743 118.25 246.743 117.53C246.743 116.811 247.32 116.235 248.042 116.235H256.274C256.996 116.235 257.574 116.811 257.574 117.53C257.574 118.25 256.924 118.826 256.274 118.826Z" fill="#A6E2B4"/>
<path fill-rule="evenodd" clip-rule="evenodd" d="M259.957 136.171H251.797C251.075 136.171 250.498 135.595 250.498 134.875C250.498 134.155 251.075 133.58 251.797 133.58H260.029C260.751 133.58 261.329 134.155 261.329 134.875C261.329 135.595 260.679 136.171 259.957 136.171Z" fill="#7AD38E"/>
<path fill-rule="evenodd" clip-rule="evenodd" d="M261.401 153.515H253.241C252.519 153.515 251.942 152.939 251.942 152.22C251.942 151.5 252.519 150.924 253.241 150.924H261.473C262.195 150.924 262.773 151.5 262.773 152.22C262.773 152.939 262.123 153.515 261.401 153.515Z" fill="#2BB24C"/>
<path fill-rule="evenodd" clip-rule="evenodd" d="M261.401 170.788H253.241C252.519 170.788 251.942 170.212 251.942 169.492C251.942 168.773 252.519 168.197 253.241 168.197H261.473C262.195 168.197 262.773 168.773 262.773 169.492C262.773 170.212 262.123 170.788 261.401 170.788Z" fill="#2BB24C"/>
<path fill-rule="evenodd" clip-rule="evenodd" d="M259.957 188.132H251.797C251.075 188.132 250.498 187.557 250.498 186.837C250.498 186.117 251.075 185.542 251.797 185.542H260.029C260.751 185.542 261.329 186.117 261.329 186.837C261.329 187.557 260.679 188.132 259.957 188.132Z" fill="#7AD38E"/>
<path fill-rule="evenodd" clip-rule="evenodd" d="M256.274 205.477H248.042C247.32 205.477 246.743 204.901 246.743 204.182C246.743 203.462 247.32 202.886 248.042 202.886H256.274C256.996 202.886 257.574 203.462 257.574 204.182C257.574 204.901 256.924 205.477 256.274 205.477Z" fill="#A6E2B4"/>
<path fill-rule="evenodd" clip-rule="evenodd" d="M249.92 222.822H241.688C240.966 222.822 240.388 222.246 240.388 221.526C240.388 220.807 240.966 220.231 241.688 220.231H249.92C250.642 220.231 251.22 220.807 251.22 221.526C251.22 222.246 250.642 222.822 249.92 222.822Z" fill="#D2F0D9"/>
<path fill-rule="evenodd" clip-rule="evenodd" d="M240.244 240.167H232.012C231.29 240.167 230.712 239.591 230.712 238.871C230.712 238.151 231.29 237.576 232.012 237.576H240.244C240.966 237.576 241.544 238.151 241.544 238.871C241.544 239.591 240.966 240.167 240.244 240.167Z" fill="#DFF5E3"/>
<g opacity="0.4">
<g opacity="0.4">
<path opacity="0.4" fill-rule="evenodd" clip-rule="evenodd" d="M179.299 135.523C179.299 137.61 181.032 139.265 183.054 139.265H184.354C184.715 136.674 185.148 134.227 185.654 131.708H183.054C181.032 131.78 179.299 133.436 179.299 135.523Z" fill="black"/>
</g>
<g opacity="0.4">
<path opacity="0.4" fill-rule="evenodd" clip-rule="evenodd" d="M178.649 146.822C176.555 146.822 174.894 148.549 174.894 150.564C174.894 152.58 176.627 154.307 178.649 154.307H183.054C183.126 151.788 183.343 149.269 183.559 146.75H178.649V146.822Z" fill="black"/>
</g>
</g>
<g opacity="0.4">
<path opacity="0.4" fill-rule="evenodd" clip-rule="evenodd" d="M160.669 150.852C166.229 150.852 170.778 146.318 170.778 140.777V121.201C170.778 115.803 166.518 111.413 161.174 111.125C157.708 122.856 155.47 136.314 154.748 150.852H160.669Z" fill="black"/>
</g>
<path fill-rule="evenodd" clip-rule="evenodd" d="M164.063 101.193H144.422C138.862 101.193 134.312 105.727 134.312 111.269V117.17C132.218 117.314 130.558 119.042 130.558 121.129C130.558 123.288 132.363 125.087 134.529 125.087H138.284C140.089 125.375 141.533 126.742 141.678 128.614C141.894 130.989 140.017 133.004 137.706 133.004H134.529H130.919C128.825 133.004 126.947 134.515 126.73 136.602C126.514 138.977 128.391 140.992 130.702 140.992H144.422H152.726H164.063C169.623 140.992 174.172 136.458 174.172 130.917V111.341C174.172 105.727 169.623 101.193 164.063 101.193Z" fill="#121212"/>
<path fill-rule="evenodd" clip-rule="evenodd" d="M164.063 142.216H130.702C129.258 142.216 127.814 141.568 126.803 140.489C125.792 139.409 125.358 137.898 125.503 136.458C125.792 133.795 128.175 131.78 130.919 131.78H137.706C138.501 131.78 139.223 131.42 139.728 130.917C140.234 130.341 140.522 129.621 140.45 128.83C140.306 127.678 139.367 126.742 138.14 126.455H134.529C131.641 126.455 129.258 124.08 129.258 121.201C129.258 118.826 130.846 116.811 133.013 116.163V111.341C133.013 105.08 138.14 99.9697 144.422 99.9697H164.063C170.345 99.9697 175.472 105.08 175.472 111.341V130.917C175.472 137.106 170.345 142.216 164.063 142.216ZM130.919 134.299C129.402 134.299 128.175 135.379 128.03 136.746C127.958 137.538 128.175 138.258 128.752 138.833C129.258 139.409 129.98 139.697 130.774 139.697H164.135C169.045 139.697 172.945 135.739 172.945 130.917V111.341C172.945 106.447 168.973 102.561 164.135 102.561H144.494C139.584 102.561 135.684 106.519 135.684 111.341V118.394L134.457 118.466C133.013 118.538 131.857 119.761 131.857 121.201C131.857 122.712 133.085 123.936 134.601 123.936H138.573C140.956 124.367 142.833 126.239 143.05 128.542C143.194 129.981 142.689 131.492 141.75 132.572C140.739 133.652 139.367 134.299 137.851 134.299H130.919Z" fill="#9E9E9E"/>
<path fill-rule="evenodd" clip-rule="evenodd" d="M137.345 118.466H134.312C133.59 118.466 133.013 117.89 133.013 117.17C133.013 116.451 133.59 115.875 134.312 115.875H137.345C138.067 115.875 138.645 116.451 138.645 117.17C138.645 117.89 138.067 118.466 137.345 118.466Z" fill="#9E9E9E"/>
<path fill-rule="evenodd" clip-rule="evenodd" d="M149.621 129.405C148.754 129.405 147.96 129.118 147.31 128.47C146.011 127.174 146.011 125.159 147.31 123.864L149.332 121.849L147.455 120.625C146.877 120.265 146.588 119.618 146.66 118.898C146.733 118.178 147.166 117.674 147.816 117.386L160.38 112.924C161.102 112.636 161.897 112.852 162.402 113.356C162.908 113.86 163.124 114.652 162.835 115.371L158.358 127.894C158.142 128.542 157.564 128.974 156.842 129.046C156.12 129.118 155.47 128.758 155.109 128.182L153.954 126.311L151.859 128.398C151.282 129.118 150.488 129.405 149.621 129.405ZM150.054 119.33L151.715 120.337C152.148 120.625 152.365 120.985 152.437 121.489C152.509 121.993 152.293 122.424 152.004 122.784L149.116 125.663C148.827 125.951 148.827 126.455 149.116 126.743C149.404 127.03 149.91 127.03 150.199 126.743L153.087 123.864C153.448 123.504 153.881 123.36 154.387 123.432C154.892 123.504 155.326 123.792 155.542 124.152L156.553 125.735L160.091 115.803L150.054 119.33Z" fill="#D9D9D9"/>
<path fill-rule="evenodd" clip-rule="evenodd" d="M96.1859 144.159H72.0679C62.8973 144.159 55.4597 136.746 55.4597 127.606V103.568C55.4597 94.428 62.8973 87.0151 72.0679 87.0151H96.1859C105.357 87.0151 112.794 94.428 112.794 103.568V127.606C112.794 136.674 105.284 144.159 96.1859 144.159Z" fill="#121212"/>
<path fill-rule="evenodd" clip-rule="evenodd" d="M96.1859 145.383H72.0679C62.2474 145.383 54.1599 137.394 54.1599 127.534V103.496C54.1599 93.7083 62.1752 85.6477 72.0679 85.6477H96.1859C106.006 85.6477 114.094 93.6363 114.094 103.496V127.534C114.022 137.394 106.006 145.383 96.1859 145.383ZM72.0679 88.3106C63.6194 88.3106 56.7595 95.1477 56.7595 103.568V127.606C56.7595 136.026 63.6194 142.864 72.0679 142.864H96.1859C104.634 142.864 111.494 136.026 111.494 127.606V103.568C111.494 95.1477 104.634 88.3106 96.1859 88.3106H72.0679Z" fill="#9E9E9E"/>
<path fill-rule="evenodd" clip-rule="evenodd" d="M76.4727 125.231C73.5843 125.159 70.2627 124.08 69.324 121.201C69.1073 120.553 69.4684 119.833 70.1183 119.617C70.7682 119.402 71.4903 119.761 71.7069 120.409C72.2123 121.92 74.4508 122.64 76.4727 122.712C77.1948 122.712 77.7003 123.288 77.7003 124.008C77.7725 124.655 77.1948 125.231 76.4727 125.231Z" fill="#D9D9D9"/>
<path fill-rule="evenodd" clip-rule="evenodd" d="M73.8732 120.481H73.6566C69.3962 119.617 66.219 116.019 66.219 111.989C66.219 111.269 66.7967 110.693 67.5188 110.693C68.2409 110.693 68.8185 111.269 68.8185 111.989C68.8185 115.083 71.5625 117.458 74.2343 118.034C74.8841 118.178 75.3896 118.826 75.2452 119.545C74.9564 120.049 74.4509 120.481 73.8732 120.481Z" fill="#D9D9D9"/>
<path fill-rule="evenodd" clip-rule="evenodd" d="M79.1444 132.14C78.4945 132.14 77.9891 132.14 77.8447 132.068C74.7396 132.068 71.7068 131.42 68.8185 130.125C67.9519 129.765 67.4465 128.83 67.5187 127.894C67.6631 126.958 68.3852 126.167 69.3239 125.951C70.8403 125.663 72.79 125.015 73.2955 123.576C73.5121 122.928 74.2342 122.568 74.8841 122.784C75.5339 123 75.895 123.72 75.6784 124.367C75.0285 126.167 73.3677 127.462 70.7681 128.182C73.0066 129.045 75.3895 129.477 77.8447 129.477H77.9891C78.0613 129.477 85.9321 130.197 91.7089 125.015C95.8248 121.273 97.9911 115.515 97.9911 107.67C97.9911 106.663 98.641 105.583 99.3631 104.432C99.3631 104.432 99.3631 104.36 99.4353 104.36C98.7854 104.576 98.1355 104.792 97.4857 104.936C96.908 105.08 96.3303 104.864 95.897 104.432C94.5251 103.064 92.6476 102.489 90.698 102.705C87.7374 103.064 85.4989 105.583 85.3545 108.534C85.3545 109.11 85.3544 109.614 85.4989 110.189L85.8599 111.845L84.1991 111.773C78.7112 111.485 73.8731 109.254 69.9738 105.151C69.9016 105.583 69.8294 106.015 69.8294 106.519C69.8294 108.606 70.8403 110.477 72.5734 111.629C73.151 111.989 73.2955 112.78 72.9344 113.356C72.5734 113.932 71.7791 114.076 71.2014 113.716C68.8185 112.133 67.3743 109.398 67.3743 106.519C67.3743 105.583 67.5187 104.72 67.8075 103.856C68.0242 103.136 68.674 102.561 69.3961 102.417C70.1904 102.273 70.9847 102.489 71.4902 103.064C74.6674 106.519 78.4945 108.606 82.8993 109.11V108.534C83.0437 104.36 86.2932 100.833 90.4091 100.258C92.9365 99.8977 95.4638 100.689 97.3412 102.417C98.3522 102.129 99.3631 101.769 100.302 101.337C100.88 101.049 101.602 101.049 102.107 101.481C102.613 101.841 102.901 102.489 102.829 103.136C102.685 104 102.179 104.936 101.529 105.871C101.168 106.447 100.591 107.455 100.518 107.814C100.446 116.307 98.0633 122.784 93.3697 126.958C88.2428 131.636 81.8884 132.14 79.1444 132.14Z" fill="#D9D9D9"/>
<path fill-rule="evenodd" clip-rule="evenodd" d="M93.4419 108.894C92.7198 108.894 92.1421 108.318 92.1421 107.598C92.1421 107.167 91.7811 106.735 91.2756 106.735C90.7702 106.735 90.4091 107.095 90.4091 107.598C90.4091 108.318 89.8314 108.894 89.1093 108.894C88.3872 108.894 87.8096 108.318 87.8096 107.598C87.8096 105.727 89.326 104.216 91.2034 104.216C93.0809 104.216 94.5973 105.727 94.5973 107.598C94.7417 108.39 94.164 108.894 93.4419 108.894Z" fill="#D9D9D9"/>
<path fill-rule="evenodd" clip-rule="evenodd" d="M84.7047 113.212C84.1992 113.212 83.6938 112.924 83.5493 112.348C83.0439 110.981 82.8995 109.758 82.8995 109.686C82.8272 108.966 83.3327 108.39 83.9826 108.318C84.7047 108.246 85.2824 108.75 85.3546 109.398C85.3546 109.398 85.499 110.405 85.86 111.485C86.0767 112.133 85.7878 112.852 85.138 113.068C84.9935 113.212 84.8491 113.212 84.7047 113.212Z" fill="#D9D9D9"/>
<path fill-rule="evenodd" clip-rule="evenodd" d="M113.155 198.424H93.153C86.0042 198.424 80.1553 192.594 80.1553 185.469V165.534C80.1553 158.409 86.0042 152.579 93.153 152.579H113.155C120.304 152.579 126.153 158.409 126.153 165.534V185.469C126.153 192.594 120.304 198.424 113.155 198.424Z" fill="#121212"/>
<path fill-rule="evenodd" clip-rule="evenodd" d="M113.155 199.72H93.153C85.2821 199.72 78.8555 193.314 78.8555 185.47V165.534C78.8555 157.689 85.2821 151.284 93.153 151.284H113.155C121.026 151.284 127.453 157.689 127.453 165.534V185.47C127.453 193.314 121.026 199.72 113.155 199.72ZM93.153 153.875C86.6541 153.875 81.455 159.129 81.455 165.606V185.47C81.455 191.947 86.7263 197.129 93.153 197.129H113.155C119.654 197.129 124.853 191.875 124.853 185.47V165.534C124.853 159.057 119.582 153.803 113.155 153.803H93.153V153.875Z" fill="#9E9E9E"/>
<path fill-rule="evenodd" clip-rule="evenodd" d="M93.153 191.011C91.9254 191.011 90.6979 190.507 89.8314 189.644C88.8926 188.78 88.3872 187.557 88.3872 186.261C88.3872 183.598 90.4812 181.439 93.0808 181.439C94.3806 181.439 95.5359 181.871 96.4746 182.807C97.4134 183.67 97.9188 184.894 97.9188 186.189C97.9188 187.485 97.4856 188.636 96.5469 189.572C95.6803 190.435 94.4528 191.011 93.153 191.011ZM93.153 183.958C93.0808 183.958 93.0808 183.958 93.153 183.958C91.8532 183.958 90.9145 184.966 90.9145 186.261C90.9145 186.837 91.1311 187.413 91.5644 187.844C91.9976 188.276 92.5753 188.492 93.153 188.492C93.7307 188.492 94.3084 188.276 94.7416 187.844C95.1749 187.413 95.3915 186.837 95.3915 186.261C95.3915 185.685 95.1749 185.11 94.7416 184.678C94.3084 184.174 93.7307 183.958 93.153 183.958ZM104.201 190.867C102.396 190.867 100.879 189.572 100.591 187.773C100.157 185.469 99.0742 183.454 97.4134 181.799C95.7525 180.216 93.6585 179.136 91.42 178.776C89.6147 178.488 88.2428 176.977 88.2428 175.178V174.962C88.2428 173.882 88.676 172.875 89.5425 172.155C90.3368 171.435 91.42 171.148 92.5031 171.291C100.446 172.515 106.728 178.632 108.173 186.549C108.389 187.629 108.1 188.708 107.378 189.5C106.656 190.363 105.645 190.795 104.562 190.795L104.201 190.867ZM91.8532 173.81C91.4922 173.81 91.2033 173.954 91.1311 174.098C90.8423 174.314 90.6979 174.674 90.6979 174.962V175.178C90.6979 175.754 91.1311 176.185 91.781 176.329C94.5972 176.761 97.1245 178.057 99.1464 180C101.168 182.015 102.54 184.534 103.046 187.341C103.118 187.916 103.623 188.348 104.201 188.348H104.418C104.851 188.348 105.14 188.06 105.284 187.916C105.429 187.773 105.645 187.413 105.501 186.981C104.273 180.144 98.8576 174.818 91.9976 173.81C91.9976 173.81 91.9254 173.81 91.8532 173.81ZM113.227 190.795C111.35 190.795 109.761 189.428 109.545 187.557C108.461 178.129 100.807 170.644 91.42 169.852C89.5425 169.708 88.0983 168.125 88.0261 166.254V166.038C88.0261 165.03 88.4594 164.023 89.1815 163.303C89.9036 162.583 90.9145 162.223 91.9976 162.367C105.068 163.519 115.61 173.81 117.054 186.837C117.199 187.844 116.838 188.852 116.188 189.644C115.466 190.435 114.527 190.867 113.444 190.867L113.227 190.795ZM91.7088 167.261C102.324 168.197 110.917 176.617 112.144 187.197C112.216 187.773 112.722 188.204 113.299 188.204H113.516C113.877 188.204 114.166 188.06 114.383 187.773C114.599 187.557 114.671 187.197 114.671 186.909C113.372 175.034 103.768 165.678 91.8532 164.67C91.5644 164.67 91.2033 164.742 90.9867 164.958C90.7701 165.174 90.6257 165.534 90.6257 165.822V166.038C90.6257 166.757 91.0589 167.261 91.7088 167.261Z" fill="#D9D9D9"/>
<g opacity="0.4">
<path opacity="0.4" fill-rule="evenodd" clip-rule="evenodd" d="M186.375 171.939H166.807H157.492H154.603C155.975 196.913 161.969 218.863 170.706 233.833H186.375C191.791 233.833 196.629 231.17 199.662 227.14L195.402 220.159L186.375 171.939Z" fill="black"/>
</g>
<path fill-rule="evenodd" clip-rule="evenodd" d="M351.88 192.883C351.158 192.883 350.58 192.307 350.58 191.587V186.477C350.58 185.758 351.158 185.182 351.88 185.182C352.602 185.182 353.18 185.758 353.18 186.477V191.587C353.107 192.379 352.53 192.883 351.88 192.883Z" fill="#333333"/>
<path fill-rule="evenodd" clip-rule="evenodd" d="M354.407 190.364H349.28C348.558 190.364 347.98 189.788 347.98 189.068C347.98 188.348 348.558 187.773 349.28 187.773H354.407C355.129 187.773 355.707 188.348 355.707 189.068C355.707 189.788 355.129 190.364 354.407 190.364Z" fill="#333333"/>
<path fill-rule="evenodd" clip-rule="evenodd" d="M296.784 119.401C296.062 119.401 295.484 118.826 295.484 118.106V112.996C295.484 112.276 296.062 111.701 296.784 111.701C297.506 111.701 298.084 112.276 298.084 112.996V118.106C298.011 118.826 297.506 119.401 296.784 119.401Z" fill="#333333"/>
<path fill-rule="evenodd" clip-rule="evenodd" d="M299.311 116.882H294.184C293.462 116.882 292.885 116.307 292.885 115.587C292.885 114.867 293.462 114.292 294.184 114.292H299.311C300.033 114.292 300.611 114.867 300.611 115.587C300.611 116.307 300.033 116.882 299.311 116.882Z" fill="#333333"/>
<path fill-rule="evenodd" clip-rule="evenodd" d="M358.667 155.818C356.357 155.818 354.479 153.947 354.479 151.644C354.479 149.341 356.357 147.47 358.667 147.47C360.978 147.47 362.856 149.341 362.856 151.644C362.856 153.947 360.978 155.818 358.667 155.818ZM358.667 149.989C357.729 149.989 357.007 150.708 357.007 151.644C357.007 152.58 357.729 153.299 358.667 153.299C359.606 153.299 360.328 152.58 360.328 151.644C360.328 150.708 359.606 149.989 358.667 149.989Z" fill="#333333"/>
<path d="M347.33 166.614C348.607 166.614 349.641 165.583 349.641 164.311C349.641 163.039 348.607 162.008 347.33 162.008C346.054 162.008 345.02 163.039 345.02 164.311C345.02 165.583 346.054 166.614 347.33 166.614Z" fill="#333333"/>
<path d="M316.064 107.886C317.34 107.886 318.375 106.855 318.375 105.583C318.375 104.311 317.34 103.28 316.064 103.28C314.788 103.28 313.753 104.311 313.753 105.583C313.753 106.855 314.788 107.886 316.064 107.886Z" fill="#333333"/>
<path fill-rule="evenodd" clip-rule="evenodd" d="M329.495 121.489C328.773 121.489 328.195 120.913 328.195 120.193V116.451C328.195 115.731 328.773 115.155 329.495 115.155C330.217 115.155 330.795 115.731 330.795 116.451V120.193C330.795 120.913 330.217 121.489 329.495 121.489Z" fill="#757575"/>
<path fill-rule="evenodd" clip-rule="evenodd" d="M347.619 135.811H343.864C343.142 135.811 342.565 135.235 342.565 134.515C342.565 133.795 343.142 133.22 343.864 133.22H347.619C348.341 133.22 348.919 133.795 348.919 134.515C348.919 135.235 348.341 135.811 347.619 135.811Z" fill="#757575"/>
<path fill-rule="evenodd" clip-rule="evenodd" d="M340.543 124.871C340.254 124.871 339.893 124.727 339.676 124.511C339.171 124.008 339.171 123.216 339.676 122.712L342.348 120.049C342.854 119.545 343.648 119.545 344.153 120.049C344.659 120.553 344.659 121.345 344.153 121.848L341.482 124.511C341.193 124.799 340.832 124.871 340.543 124.871Z" fill="#757575"/>
<g opacity="0.2">
<path opacity="0.2" fill-rule="evenodd" clip-rule="evenodd" d="M80.5884 160.568H88.8203C95.5358 160.568 101.457 156.97 104.706 151.644H94.0194C87.9538 151.644 82.7547 155.314 80.5884 160.568Z" fill="black"/>
</g>
<path fill-rule="evenodd" clip-rule="evenodd" d="M203.634 153.155C202.911 153.155 202.334 152.579 202.334 151.86V122.856C202.334 122.136 202.911 121.561 203.634 121.561C204.356 121.561 204.933 122.136 204.933 122.856V151.86C204.933 152.579 204.356 153.155 203.634 153.155Z" fill="black"/>
<path fill-rule="evenodd" clip-rule="evenodd" d="M196.557 125.591H195.185H186.014C183.848 125.591 182.043 127.39 182.043 129.549C182.043 131.708 183.848 133.508 186.014 133.508H187.531H189.986C192.152 133.508 193.957 135.307 193.957 137.466C193.957 139.625 192.152 141.424 189.986 141.424H187.531H181.321C179.154 141.424 177.349 143.224 177.349 145.383C177.349 147.542 179.154 149.341 181.321 149.341H195.113H196.412H203.633V125.663H196.557V125.591Z" fill="#121212"/>
<path fill-rule="evenodd" clip-rule="evenodd" d="M204.933 150.492H181.393C178.505 150.492 176.194 148.189 176.194 145.311C176.194 142.432 178.505 140.129 181.393 140.129H189.986C191.502 140.129 192.658 138.905 192.658 137.466C192.658 136.027 191.43 134.803 189.986 134.803H186.014C183.126 134.803 180.815 132.5 180.815 129.621C180.815 126.742 183.126 124.439 186.014 124.439H204.933V150.492ZM181.321 142.576C179.804 142.576 178.649 143.799 178.649 145.239C178.649 146.678 179.877 147.902 181.321 147.902H202.334V126.742H185.942C184.426 126.742 183.27 127.966 183.27 129.405C183.27 130.845 184.498 132.068 185.942 132.068H189.914C192.802 132.068 195.113 134.371 195.113 137.25C195.113 140.129 192.802 142.432 189.914 142.432H181.321V142.576Z" fill="#9E9E9E"/>
<path fill-rule="evenodd" clip-rule="evenodd" d="M136.19 218.647C132.94 218.647 130.341 215.984 130.341 212.818C130.341 209.579 133.013 206.988 136.19 206.988C139.439 206.988 142.039 209.651 142.039 212.818C142.111 216.056 139.439 218.647 136.19 218.647Z" fill="#121212"/>
<path fill-rule="evenodd" clip-rule="evenodd" d="M136.19 219.943C132.29 219.943 129.041 216.776 129.041 212.818C129.041 208.86 132.218 205.693 136.19 205.693C140.161 205.693 143.339 208.86 143.339 212.818C143.339 216.776 140.161 219.943 136.19 219.943ZM136.19 208.212C133.662 208.212 131.568 210.299 131.568 212.818C131.568 215.337 133.662 217.424 136.19 217.424C138.717 217.424 140.811 215.337 140.811 212.818C140.811 210.299 138.789 208.212 136.19 208.212Z" fill="#333333"/>
<path fill-rule="evenodd" clip-rule="evenodd" d="M196.34 160.64H177.927H169.117H154.314C151.065 160.64 148.465 163.231 148.465 166.469C148.465 169.708 151.065 172.299 154.314 172.299H155.47H159.586C162.835 172.299 165.435 174.89 165.435 178.129C165.435 181.367 162.835 183.958 159.586 183.958H158.43H153.592H146.732C143.483 183.958 140.883 186.549 140.883 189.788C140.883 193.026 143.483 195.617 146.732 195.617H150.559H153.592H158.069C161.319 195.617 163.918 198.208 163.918 201.447C163.918 204.685 161.319 207.276 158.069 207.276H154.531C151.281 207.276 148.682 209.867 148.682 213.106C148.682 216.344 151.281 218.935 154.531 218.935H169.189H180.454H196.34C202.117 218.935 207.172 215.769 209.843 211.163C211.215 208.86 211.938 206.197 211.938 203.39V176.329C212.01 167.693 204.933 160.64 196.34 160.64Z" fill="#121212"/>
<path fill-rule="evenodd" clip-rule="evenodd" d="M196.34 220.159H154.459C150.559 220.159 147.382 216.992 147.382 213.106C147.382 209.219 150.559 206.053 154.459 206.053H157.997C160.524 206.053 162.546 204.038 162.546 201.519C162.546 199 160.524 196.985 157.997 196.985H146.66C142.761 196.985 139.583 193.818 139.583 189.932C139.583 186.045 142.761 182.879 146.66 182.879H159.513C162.041 182.879 164.063 180.863 164.063 178.344C164.063 175.826 162.041 173.81 159.513 173.81H154.314C150.415 173.81 147.238 170.644 147.238 166.757C147.238 162.871 150.415 159.704 154.314 159.704H196.34C205.655 159.704 213.237 167.261 213.237 176.545V203.606C213.237 206.557 212.443 209.507 210.927 212.026C207.966 216.92 202.334 220.159 196.34 220.159ZM154.531 208.5C152.004 208.5 149.982 210.515 149.982 213.034C149.982 215.553 152.004 217.568 154.531 217.568H196.412C201.467 217.568 206.233 214.833 208.832 210.443C210.132 208.284 210.782 205.765 210.782 203.318V176.257C210.782 168.341 204.355 161.935 196.412 161.935H154.314C151.787 161.935 149.765 163.951 149.765 166.469C149.765 168.988 151.787 171.004 154.314 171.004H159.586C163.485 171.004 166.662 174.17 166.662 178.057C166.662 181.943 163.485 185.11 159.586 185.11H146.732C144.205 185.11 142.183 187.125 142.183 189.644C142.183 192.163 144.205 194.178 146.732 194.178H158.069C161.968 194.178 165.146 197.344 165.146 201.231C165.146 205.117 161.968 208.284 158.069 208.284H154.531V208.5Z" fill="#9E9E9E"/>
<path fill-rule="evenodd" clip-rule="evenodd" d="M183.27 208.5C173.666 208.5 165.796 200.583 165.796 190.867C165.796 181.151 173.594 173.235 183.27 173.235C187.242 173.235 191.213 174.674 194.246 177.193C194.679 177.553 194.896 178.057 194.968 178.56C194.968 179.136 194.824 179.64 194.391 180L190.564 183.886C189.841 184.606 188.758 184.678 187.964 184.03C186.52 182.951 184.787 182.303 182.982 182.303C178.432 182.303 174.75 186.045 174.75 190.651C174.75 195.257 178.432 199 182.982 199C185.725 199 188.325 197.56 189.841 195.329H183.776C182.693 195.329 181.826 194.466 181.826 193.386V188.348C181.826 187.269 182.693 186.405 183.776 186.405H198.579C199.518 186.405 200.384 187.053 200.528 188.06C200.673 188.996 200.745 189.932 200.745 190.867C200.745 200.655 192.874 208.5 183.27 208.5ZM183.27 175.826C175.038 175.826 168.323 182.591 168.323 190.939C168.323 199.288 175.038 206.053 183.27 206.053C191.502 206.053 198.218 199.288 198.218 190.939C198.218 190.291 198.146 189.716 198.073 189.068H184.354V192.954H193.741L193.091 194.682C191.502 198.928 187.459 201.735 182.982 201.735C177.06 201.735 172.222 196.841 172.222 190.867C172.222 184.894 177.06 180 182.982 180C185.22 180 187.314 180.647 189.119 181.943L192.152 178.92C189.625 176.833 186.448 175.826 183.27 175.826Z" fill="#D9D9D9"/>
<g opacity="0.2">
<path opacity="0.2" fill-rule="evenodd" clip-rule="evenodd" d="M173.089 107.886H192.946C196.99 98.6021 202.117 91.0453 207.894 85.7195C204.428 82.4809 200.745 80.6816 196.846 80.6816C187.386 80.6816 178.938 91.1892 173.089 107.886Z" fill="black"/>
</g>
</svg>
