<svg xmlns="http://www.w3.org/2000/svg" width="20" height="20" viewBox="0 0 20 20" class="icon__B4xp9 icon color--secondary__WX5GF"><g fill="currentColor" fill-rule="nonzero"><path d="M10 1.643a8.357 8.357 0 1 0 0 16.714 8.357 8.357 0 0 0 0-16.714Zm0 1a7.357 7.357 0 1 1 0 14.714 7.357 7.357 0 0 1 0-14.714Z"></path><path d="M10 12.693c2.258 0 4.241 1.279 5.232 3.298a.5.5 0 0 1-.898.44c-.825-1.682-2.463-2.738-4.334-2.738-1.864 0-3.493 1.055-4.322 2.74a.5.5 0 1 1-.897-.442c.994-2.02 2.967-3.298 5.219-3.298ZM10 5.795a2.955 2.955 0 1 0 0 5.91 2.955 2.955 0 0 0 0-5.91Zm0 1a1.955 1.955 0 1 1 0 3.91 1.955 1.955 0 0 1 0-3.91Z"></path></g></svg>