<svg xmlns="http://www.w3.org/2000/svg" width="20" height="20" viewBox="0 0 20 20" class="icon__B4xp9 color-accent__AnyWD icon ljI0g6jsFP9X8F24pLQf"><g fill="currentColor" fill-rule="nonzero" stroke-linecap="round" stroke-linejoin="round"><path d="M9.583.917a7.833 7.833 0 1 0 0 15.666 7.833 7.833 0 0 0 0-15.666Zm0 1.5a6.333 6.333 0 1 1 0 12.666 6.333 6.333 0 0 1 0-12.666Z"></path><path d="M14.47 13.636a.75.75 0 0 1 .977-.072l.084.073 3.33 3.337a.75.75 0 0 1-.978 1.132l-.084-.073-3.33-3.337a.75.75 0 0 1 .001-1.06Z"></path></g></svg>