<svg xmlns="http://www.w3.org/2000/svg" width="20" height="20" viewBox="0 0 20 20" class="icon__B4xp9 icon color--secondary__WX5GF"><g fill="currentColor" fill-rule="nonzero" stroke-linecap="round" stroke-linejoin="round"><path d="m11.305 2.259-.66.724a.869.869 0 0 1-1.29.002l-.658-.726a1.869 1.869 0 0 0-3.25 1.344l.047.98a.87.87 0 0 1-.912.916l-.98-.05A1.869 1.869 0 0 0 2.258 8.7l.727.66a.87.87 0 0 1 .001 1.292l-.727.657a1.869 1.869 0 0 0 1.35 3.251l.978-.05a.868.868 0 0 1 .912.912l-.05.979a1.87 1.87 0 0 0 3.249 1.346l.66-.728a.87.87 0 0 1 1.29-.001l.658.728a1.87 1.87 0 0 0 3.248-1.343l-.05-.982a.869.869 0 0 1 .912-.912l.978.05a1.869 1.869 0 0 0 1.348-3.254l-.728-.657a.87.87 0 0 1 0-1.29l.728-.657a1.87 1.87 0 0 0-1.345-3.254l-.979.05a.867.867 0 0 1-.908-.911l.05-.978a1.869 1.869 0 0 0-3.254-1.348Zm1.72.45c.34.14.553.48.535.847l-.05.979a1.869 1.869 0 0 0 1.957 1.96l.98-.05a.869.869 0 0 1 .624 1.513l-.728.656a1.87 1.87 0 0 0 0 2.776l.728.657a.869.869 0 0 1-.627 1.512l-.978-.05a1.868 1.868 0 0 0-1.961 1.962l.05.978a.868.868 0 0 1-1.51.623l-.655-.725a1.869 1.869 0 0 0-2.774 0l-.66.726a.868.868 0 0 1-1.51-.625l.05-.975a1.868 1.868 0 0 0-1.961-1.962l-.978.05a.868.868 0 0 1-.629-1.511l.727-.657a1.87 1.87 0 0 0 0-2.775l-.726-.66a.869.869 0 0 1 .625-1.51l.976.05a1.867 1.867 0 0 0 1.963-1.966l-.047-.976a.869.869 0 0 1 1.51-.625l.657.724a1.867 1.867 0 0 0 2.774 0l.659-.724a.87.87 0 0 1 .979-.222Z"></path><path d="M10 6.643a3.357 3.357 0 1 0 0 6.714 3.357 3.357 0 0 0 0-6.714Zm0 1a2.357 2.357 0 1 1 0 4.714 2.357 2.357 0 0 1 0-4.714Z"></path></g></svg>