<svg width="24" height="24" viewBox="0 0 7751 6941" fill="none" xmlns="http://www.w3.org/2000/svg">
<path d="M5150 2182.28L3875.49 187L2600.98 2182.28L193 2707.71L1813.3 4466.28L1599.59 6786.29L3395.57 6069.44C3374.19 5957.27 3363 5841.46 3363 5723C3363 4715.63 4172.47 3899 5171 3899C5543.18 3899 5889.1 4012.45 6176.63 4206.95L7557.98 2707.71L5150 2182.28Z" fill="#2BB24C"/>
<path d="M5107.4 5674.13L5101.03 6561L5301.03 6562.01L5307.41 5674.13H6403V5474.13H5308.85L5314.72 4657.01L5114.72 4656L5108.84 5474.13H4131V5674.13H5107.4Z" fill="#2BB24C"/>
<path d="M5150 2182.28L3875.49 187L2600.98 2182.28L193 2707.71L1813.3 4466.28L1599.59 6786.29L3395.57 6069.44C3374.19 5957.27 3363 5841.46 3363 5723C3363 4715.63 4172.47 3899 5171 3899C5543.18 3899 5889.1 4012.45 6176.63 4206.95L7557.98 2707.71L5150 2182.28Z" stroke="#2BB24C"/>
<path d="M5107.4 5674.13L5101.03 6561L5301.03 6562.01L5307.41 5674.13H6403V5474.13H5308.85L5314.72 4657.01L5114.72 4656L5108.84 5474.13H4131V5674.13H5107.4Z" stroke="#2BB24C"/>
</svg>
