<svg width="24" height="24" viewBox="0 0 4583 3962" fill="none" xmlns="http://www.w3.org/2000/svg">
<path fill-rule="evenodd" clip-rule="evenodd" d="M2888.89 3290.95L2885.04 3949.72L3085.04 3950.96L3088.89 3290.95H3700.65V3090.95H3090.06L3093.61 2481.31L2893.62 2480.07L2890.05 3090.95H2277.37V3290.95H2888.89Z" fill="currentColor" class="board-icon-color" stroke-width="800"/>
<path d="M2248.02 180L2330.97 124.153L2248.02 0.940544L2165.07 124.153L2248.02 180ZM2256.32 192.321L2173.36 248.168L2173.36 248.169L2256.32 192.321ZM2239.73 192.321L2322.68 248.169L2322.68 248.168L2239.73 192.321ZM1523.62 1255.98L1545.85 1353.48L1584.46 1344.67L1606.57 1311.83L1523.62 1255.98ZM206.732 1556.3L228.967 1653.8L228.967 1653.8L206.732 1556.3ZM190 1560.12L167.765 1462.62L0.445212 1500.78L116.141 1627.53L190 1560.12ZM201.569 1572.79L275.429 1505.38L275.429 1505.38L201.569 1572.79ZM1075.45 2530.2L1175.14 2538L1178.52 2494.79L1149.31 2462.79L1075.45 2530.2ZM977.839 3778.98L878.143 3771.19L878.143 3771.19L977.839 3778.98ZM976.596 3794.89L876.9 3787.1L864.465 3946.2L1013.06 3888L976.596 3794.89ZM991.456 3789.07L1027.92 3882.19L1121.03 3845.72L1084.57 3752.61L991.456 3789.07ZM991.461 3789.07L955.217 3695.87L953.282 3696.62L951.379 3697.45L991.461 3789.07ZM991.479 3789.06L1027.72 3882.26L1027.8 3882.23L1027.87 3882.21L991.479 3789.06ZM991.549 3789.03L1027.94 3882.18L1027.99 3882.16L1028.03 3882.14L991.549 3789.03ZM991.831 3788.92L955.393 3695.8L955.37 3695.81L955.347 3695.82L991.831 3788.92ZM992.949 3788.49L956.515 3695.36L956.511 3695.36L992.949 3788.49ZM997.349 3786.76L960.921 3693.64L960.915 3693.64L997.349 3786.76ZM1014.35 3780.12L1050.73 3873.27L1050.73 3873.27L1014.35 3780.12ZM1077.57 3755.47L1113.85 3848.66L1113.85 3848.66L1077.57 3755.47ZM1292.12 3672.31L1328.12 3765.61L1328.12 3765.61L1292.12 3672.31ZM1830.32 3468.14L1864.93 3561.96L1944.86 3532.47L1928.44 3448.87L1830.32 3468.14ZM1826.58 3448.2L1925.02 3430.62L1904.02 3313.06L1791.98 3354.38L1826.58 3448.2ZM1284.92 3653.65L1248.92 3560.36L1248.92 3560.36L1284.92 3653.65ZM1070.32 3736.83L1106.6 3830.02L1106.6 3830.02L1070.32 3736.83ZM1007.07 3761.49L970.694 3668.34L970.687 3668.35L1007.07 3761.49ZM999.022 3764.64L899.326 3756.84L886.902 3915.8L1035.41 3857.78L999.022 3764.64ZM1095.72 2527.44L1195.42 2535.23L1195.42 2535.23L1095.72 2527.44ZM1096.06 2523.12L1195.76 2530.91L1199.13 2487.71L1169.92 2455.7L1096.06 2523.12ZM1093.14 2519.92L1019.28 2587.34L1019.28 2587.34L1093.14 2519.92ZM227.911 1571.99L205.676 1474.49L38.3567 1512.65L154.051 1639.4L227.911 1571.99ZM1531.92 1274.6L1509.69 1177.1L1509.69 1177.1L1531.92 1274.6ZM1535.78 1273.72L1558.02 1371.22L1596.62 1362.41L1618.74 1329.57L1535.78 1273.72ZM1538 1270.43L1455.04 1214.59L1455.04 1214.59L1538 1270.43ZM2248.02 215.812L2330.97 159.964L2248.02 36.7529L2165.07 159.964L2248.02 215.812ZM2958.05 1270.43L3041 1214.59L3041 1214.59L2958.05 1270.43ZM2960.26 1273.72L2877.3 1329.56L2899.42 1362.41L2938.02 1371.22L2960.26 1273.72ZM2964.12 1274.6L2986.35 1177.1L2986.35 1177.1L2964.12 1274.6ZM4268.43 1572.06L4343.36 1638.28L4454.96 1512.03L4290.67 1474.56L4268.43 1572.06ZM3664.53 2255.28L3589.6 2189.06L3523.38 2263.98L3598.3 2330.21L3664.53 2255.28ZM3679.51 2268.53L3613.29 2343.45L3688.21 2409.68L3754.44 2334.76L3679.51 2268.53ZM4294.58 1572.67L4219.65 1506.45L4219.65 1506.45L4294.58 1572.67ZM4305.74 1560.05L4380.66 1626.28L4492.27 1500.02L4327.97 1462.55L4305.74 1560.05ZM4289.31 1556.3L4267.07 1653.8L4267.08 1653.8L4289.31 1556.3ZM2972.43 1255.98L2889.47 1311.83L2911.59 1344.67L2950.19 1353.48L2972.43 1255.98ZM2165.07 235.847L2173.36 248.168L2339.27 136.474L2330.97 124.153L2165.07 235.847ZM2322.68 248.168L2330.97 235.847L2165.07 124.153L2156.77 136.474L2322.68 248.168ZM1606.57 1311.83L2322.68 248.169L2156.77 136.474L1440.66 1200.13L1606.57 1311.83ZM228.967 1653.8L1545.85 1353.48L1501.38 1158.48L184.497 1458.81L228.967 1653.8ZM212.235 1657.62L228.967 1653.8L184.497 1458.81L167.765 1462.62L212.235 1657.62ZM275.429 1505.38L263.859 1492.7L116.141 1627.53L127.71 1640.21L275.429 1505.38ZM1149.31 2462.79L275.429 1505.38L127.71 1640.21L1001.59 2597.62L1149.31 2462.79ZM1077.54 3786.77L1175.14 2538L975.75 2522.41L878.143 3771.19L1077.54 3786.77ZM1076.29 3802.68L1077.54 3786.77L878.143 3771.19L876.9 3787.1L1076.29 3802.68ZM954.991 3695.96L940.132 3701.78L1013.06 3888L1027.92 3882.19L954.991 3695.96ZM894.694 3816.22L898.341 3825.54L1084.57 3752.61L1080.92 3743.29L894.694 3816.22ZM951.379 3697.45C951.381 3697.45 951.796 3697.27 952.209 3697.09C952.625 3696.92 953.875 3696.4 954.712 3696.07C956.866 3695.21 960.438 3693.89 964.975 3692.64C974.659 3689.98 988.127 3687.86 1003.93 3689.85C1035.78 3693.85 1055.36 3711.45 1062.67 3718.85C1070.31 3726.61 1074.87 3733.84 1076.35 3736.22C1078.33 3739.4 1079.71 3742.02 1080.38 3743.31C1081.72 3745.91 1082.64 3748.01 1082.89 3748.56C1083.26 3749.4 1083.54 3750.07 1083.68 3750.39C1083.95 3751.03 1084.15 3751.53 1084.19 3751.64C1084.26 3751.82 1084.32 3751.95 1084.33 3751.99C1084.36 3752.07 1084.33 3751.98 1084.09 3751.36C1083.65 3750.25 1082.75 3747.96 1080.92 3743.29L894.694 3816.22C896.513 3820.87 897.442 3823.24 897.917 3824.45C898.13 3824.99 898.323 3825.48 898.473 3825.86C898.516 3825.97 898.591 3826.16 898.681 3826.38C898.741 3826.53 898.953 3827.05 899.23 3827.71C899.366 3828.04 899.651 3828.72 900.028 3829.57C900.274 3830.12 901.201 3832.22 902.541 3834.82C903.205 3836.11 904.586 3838.74 906.567 3841.92C908.047 3844.29 912.611 3851.53 920.257 3859.28C927.557 3866.69 947.141 3884.29 978.994 3888.29C994.796 3890.27 1008.26 3888.16 1017.95 3885.5C1022.48 3884.25 1026.06 3882.92 1028.21 3882.07C1029.05 3881.74 1030.3 3881.22 1030.71 3881.04C1031.13 3880.87 1031.54 3880.68 1031.54 3880.68L951.379 3697.45ZM955.234 3695.86L955.217 3695.87L1027.71 3882.27L1027.72 3882.26L955.234 3695.86ZM955.161 3695.89L955.091 3695.92L1027.87 3882.21L1027.94 3882.18L955.161 3695.89ZM955.347 3695.82L955.065 3695.93L1028.03 3882.14L1028.32 3882.03L955.347 3695.82ZM956.511 3695.36L955.393 3695.8L1028.27 3882.05L1029.39 3881.61L956.511 3695.36ZM960.915 3693.64L956.515 3695.36L1029.38 3881.61L1033.78 3879.89L960.915 3693.64ZM977.97 3686.97C970.551 3689.87 964.811 3692.11 960.921 3693.64L1033.78 3879.89C1037.63 3878.39 1043.34 3876.15 1050.73 3873.27L977.97 3686.97ZM1041.29 3662.28C1014.37 3672.76 992.81 3681.18 977.97 3686.97L1050.73 3873.27C1065.51 3867.5 1087.01 3859.11 1113.85 3848.66L1041.29 3662.28ZM1256.12 3579.02C1170.39 3612.1 1095.13 3641.32 1041.29 3662.28L1113.85 3848.66C1167.55 3827.75 1242.62 3798.6 1328.12 3765.61L1256.12 3579.02ZM1795.7 3374.32C1629.95 3435.48 1423.01 3514.62 1256.12 3579.02L1328.12 3765.61C1494.8 3701.29 1700.62 3622.58 1864.93 3561.96L1795.7 3374.32ZM1928.44 3448.87C1927.25 3442.8 1926.11 3436.72 1925.02 3430.62L1728.13 3465.79C1729.43 3473.02 1730.78 3480.23 1732.19 3487.41L1928.44 3448.87ZM1320.92 3746.95C1488.7 3682.21 1696.2 3602.86 1861.17 3542.03L1791.98 3354.38C1625.55 3415.75 1416.89 3495.54 1248.92 3560.36L1320.92 3746.95ZM1106.6 3830.02C1160.3 3809.11 1235.4 3779.95 1320.92 3746.95L1248.92 3560.36C1163.17 3593.45 1087.89 3622.68 1034.04 3643.65L1106.6 3830.02ZM1043.46 3854.64C1058.24 3848.86 1079.74 3840.47 1106.6 3830.02L1034.04 3643.65C1007.11 3654.13 985.54 3662.54 970.694 3668.34L1043.46 3854.64ZM1035.41 3857.78L1043.46 3854.64L970.687 3668.35L962.634 3671.49L1035.41 3857.78ZM996.027 2519.65L899.326 3756.84L1098.72 3772.43L1195.42 2535.23L996.027 2519.65ZM996.365 2515.33L996.027 2519.65L1195.42 2535.23L1195.76 2530.91L996.365 2515.33ZM1019.28 2587.34L1022.2 2590.54L1169.92 2455.7L1167 2452.5L1019.28 2587.34ZM154.051 1639.4L1019.28 2587.34L1167 2452.51L301.77 1504.57L154.051 1639.4ZM1509.69 1177.1L205.676 1474.49L250.145 1669.48L1554.16 1372.1L1509.69 1177.1ZM1513.55 1176.22L1509.69 1177.1L1554.16 1372.1L1558.02 1371.22L1513.55 1176.22ZM1455.04 1214.59L1452.83 1217.87L1618.74 1329.57L1620.95 1326.28L1455.04 1214.59ZM2165.07 159.964L1455.04 1214.59L1620.95 1326.28L2330.97 271.659L2165.07 159.964ZM3041 1214.59L2330.97 159.964L2165.07 271.659L2875.09 1326.28L3041 1214.59ZM3043.21 1217.87L3041 1214.59L2875.09 1326.28L2877.3 1329.56L3043.21 1217.87ZM2986.35 1177.1L2982.49 1176.22L2938.02 1371.22L2941.88 1372.1L2986.35 1177.1ZM4290.67 1474.56L2986.35 1177.1L2941.88 1372.1L4246.2 1669.55L4290.67 1474.56ZM3739.46 2321.51L4343.36 1638.28L4193.51 1505.83L3589.6 2189.06L3739.46 2321.51ZM3745.74 2193.6L3730.76 2180.36L3598.3 2330.21L3613.29 2343.45L3745.74 2193.6ZM4219.65 1506.45L3604.59 2202.3L3754.44 2334.76L4369.5 1638.9L4219.65 1506.45ZM4230.81 1493.82L4219.65 1506.45L4369.5 1638.9L4380.66 1626.28L4230.81 1493.82ZM4267.08 1653.8L4283.5 1657.55L4327.97 1462.55L4311.54 1458.81L4267.08 1653.8ZM2950.19 1353.48L4267.07 1653.8L4311.54 1458.81L2994.66 1158.48L2950.19 1353.48ZM2173.36 248.169L2889.47 1311.83L3055.38 1200.13L2339.27 136.474L2173.36 248.169Z" fill="currentColor" class="board-icon-color" stroke-width="800"/>
</svg>

