<svg xmlns="http://www.w3.org/2000/svg" width="20" height="20" viewBox="0 0 20 20" class="icon__B4xp9 icon importance-secondary__YiGWy ljI0g6jsFP9X8F24pLQf"><path fill="currentColor" fill-rule="nonzero" d="M7.925 1.123A9.344 9.344 0 0 0 1.49 10a9.344 9.344 0 0 0 9.343 9.344 9.344 9.344 0 0 0 8.877-6.436.75.75 0 0 0-.865-.968 8.417 8.417 0 0 1-9.952-9.952.75.75 0 0 0-.968-.865ZM7.243 3.03l-.016.26a10.05 10.05 0 0 0-.008.408c0 5.476 4.44 9.917 9.916 9.917l.41-.009.258-.016-.046.09A7.842 7.842 0 1 1 7.154 3.076l.089-.046Z"></path></svg>